<svg width="101" height="89" viewBox="0 0 101 89" fill="none" xmlns="http://www.w3.org/2000/svg">
<path d="M96.5946 38.3297C96.2357 38.5579 95.7555 38.544 95.4068 38.2616C94.9683 37.9082 94.9 37.2664 95.2542 36.8273C95.8429 36.0991 96.1495 35.6782 96.1574 35.6659C96.4903 35.2066 97.1262 35.1082 97.5817 35.4387C98.038 35.7687 98.1398 36.4062 97.8098 36.8625C97.8098 36.8625 97.4809 37.3168 96.8408 38.1104C96.7696 38.198 96.685 38.2723 96.5946 38.3297Z" fill="black"/>
<path d="M95.4097 38.2622C94.9702 37.9131 94.9003 37.2686 95.2486 36.8297C95.6118 36.3934 96.2479 36.3275 96.6874 36.6767C97.1268 37.0258 97.1968 37.6703 96.8399 38.1146C96.7694 38.1957 96.6865 38.2726 96.5918 38.3328C96.2389 38.5571 95.7609 38.5466 95.4097 38.2622Z" fill="black"/>
<path d="M78.1098 54.7201C77.6364 55.021 77.0082 54.8884 76.7073 54.415C76.4009 53.9329 76.5476 53.3079 77.021 53.007C77.8945 52.4398 78.7521 51.8705 79.5653 51.3054C80.0341 50.9591 80.6685 51.0997 80.9858 51.5628L81.0132 51.6058C81.2945 52.0675 81.1682 52.6675 80.7284 52.9833C79.9067 53.5539 79.0223 54.1401 78.1098 54.7201ZM75.46 56.3317C75.4514 56.3372 75.4351 56.3476 75.4256 56.3536C74.5343 56.8718 73.6007 57.3805 72.6648 57.8666C72.1952 58.1166 71.6047 57.9481 71.3257 57.5091C71.3093 57.4833 71.3023 57.4514 71.2914 57.4342C71.0335 56.9334 71.2138 56.3233 71.7223 56.0605C72.6238 55.5963 73.5261 55.0953 74.4002 54.5881C74.8729 54.324 75.4783 54.4589 75.7683 54.9151L75.8011 54.9668C76.0739 55.434 75.9249 56.0363 75.46 56.3317ZM83.1984 51.1838C82.7499 51.4689 82.1562 51.3507 81.8428 50.9335C81.8178 50.9131 81.8068 50.8959 81.7904 50.8701C81.5059 50.4225 81.6086 49.8254 82.0353 49.5059C82.8437 48.8954 83.6585 48.2567 84.445 47.6118C84.8716 47.256 85.5209 47.3268 85.8757 47.7539C85.8976 47.7884 85.929 47.8168 85.9508 47.8512C86.2095 48.279 86.1334 48.8229 85.7631 49.155L85.7341 49.1855C85.7169 49.1964 85.6965 49.2214 85.6802 49.2318C84.8936 49.8768 84.0788 50.5155 83.2618 51.1315C83.2492 51.1515 83.2242 51.1674 83.1984 51.1838ZM69.9619 59.1856C69.9189 59.2129 69.8759 59.2403 69.836 59.2536C68.8727 59.6966 67.9062 60.1175 66.965 60.4981L66.9017 60.4175L66.929 60.4606L66.9469 60.5096C66.4853 60.6942 65.9628 60.5187 65.7002 60.1055C65.6674 60.0538 65.6432 59.9967 65.6189 59.9396C65.4064 59.4341 65.6689 58.8201 66.1798 58.6163C67.1047 58.246 68.0476 57.828 68.9851 57.4014C69.4452 57.1935 70.0076 57.3558 70.2725 57.7917C70.2944 57.8261 70.3163 57.8605 70.335 57.9091C70.5515 58.3637 70.3838 58.9175 69.9619 59.1856ZM87.993 47.2422C87.5712 47.5103 87.0181 47.4388 86.6812 47.0607C86.6397 47.0145 86.6179 46.9801 86.5905 46.9371C86.3138 46.5207 86.3884 45.9536 86.772 45.6252C87.5108 44.9623 88.2646 44.2657 89.016 43.5464C89.4261 43.1648 90.088 43.1793 90.464 43.5808C90.5109 43.6356 90.5532 43.6812 90.5915 43.7415C90.8487 44.1461 90.7794 44.6856 90.4327 45.0148C90.421 45.0343 90.4132 45.0392 90.4132 45.0392C89.6618 45.7585 88.89 46.4666 88.1261 47.1455C88.0791 47.1875 88.036 47.2148 87.993 47.2422ZM64.2123 61.5104C64.1434 61.5542 64.069 61.5894 63.9892 61.6159C62.9885 61.9619 61.9704 62.2826 60.9917 62.5663C60.5504 62.6897 60.0742 62.5089 59.8412 62.1252C59.7919 62.0477 59.7513 61.9648 59.7279 61.8709C59.5725 61.3412 59.8881 60.7539 60.4233 60.6071C61.3934 60.3289 62.3802 60.016 63.3269 59.6801C63.7745 59.5286 64.2697 59.6973 64.5268 60.1019C64.5706 60.1708 64.5994 60.2371 64.6268 60.3163C64.7775 60.7645 64.6082 61.2588 64.2123 61.5104ZM92.4726 42.9569C92.068 43.214 91.5626 43.1606 91.2162 42.8248C91.1599 42.776 91.1138 42.7207 91.0701 42.6518C90.8043 42.2527 90.8609 41.7332 91.1967 41.3869C91.9177 40.6386 92.6159 39.8927 93.2774 39.146C93.6398 38.7464 94.3087 38.6959 94.7129 39.0675C94.924 39.2476 95.0467 39.4959 95.0512 39.771C95.0737 40.0347 94.9774 40.3014 94.7973 40.5125C94.11 41.2756 93.3914 42.0466 92.6533 42.8058C92.6048 42.8608 92.5414 42.9131 92.4726 42.9569ZM58.2485 63.2342C58.171 63.2834 58.0912 63.31 58.0028 63.342L57.9316 63.3631C57.9089 63.3654 57.8917 63.3763 57.869 63.3787C56.8652 63.6058 55.8504 63.8156 54.845 63.9832C54.4358 64.062 54.0323 63.8834 53.8134 63.5391C53.7368 63.4186 53.6838 63.2952 53.6603 63.1651C53.5675 62.6197 53.9481 62.0757 54.4934 61.9829C55.4933 61.8067 56.4854 61.5992 57.4751 61.3689C57.8875 61.2761 58.3269 61.456 58.5567 61.8176C58.6264 61.9063 58.674 62.0211 58.6997 62.1376C58.7989 62.558 58.6195 62.9984 58.2485 63.2342ZM52.1452 64.2972C52.0161 64.3793 51.8737 64.4215 51.7195 64.4469C50.6867 64.5715 49.6321 64.6617 48.5752 64.7291C48.2021 64.7487 47.8431 64.566 47.6492 64.242C47.5617 64.1043 47.5031 63.9361 47.4954 63.7718C47.4621 63.2249 47.9059 62.7253 48.4528 62.692C49.4416 62.6315 50.4586 62.5411 51.4827 62.422C51.8779 62.3763 52.2447 62.5541 52.4581 62.8898C52.5401 63.0189 52.5964 63.1645 52.6064 63.3152C52.661 63.7035 52.4809 64.0838 52.1452 64.2972ZM45.9656 64.6716C45.8029 64.775 45.6197 64.831 45.4281 64.8319C44.3633 64.8318 43.312 64.8111 42.2747 64.7573C41.9374 64.742 41.631 64.5622 41.4559 64.2867C41.341 64.1059 41.2909 63.896 41.3012 63.684C41.3242 63.1497 41.8322 62.6939 42.3665 62.7169C43.3444 62.7722 44.3379 62.7934 45.4096 62.789C45.7578 62.7853 46.0878 62.9623 46.2738 63.255C46.3778 63.4186 46.4387 63.6095 46.441 63.8014C46.4352 64.1555 46.2574 64.4861 45.9656 64.6716ZM39.7699 64.3551C39.5805 64.4755 39.3614 64.5301 39.144 64.5112L39.1204 64.5141C39.1063 64.511 39.079 64.5042 39.0641 64.5016C38.0675 64.3977 37.049 64.2595 36.0517 64.0957C36.0423 64.1017 36.0282 64.0985 36.0064 64.1003L35.8702 64.0781L35.8883 64.0666C35.638 63.9961 35.4292 63.8387 35.2924 63.6235C35.1611 63.4169 35.1127 63.1697 35.152 62.9272C35.2344 62.3913 35.7893 61.9903 36.3157 62.0788C37.3083 62.2335 38.3277 62.3712 39.3375 62.4787L39.4814 62.496L39.4642 62.5069C39.7308 62.5671 39.9537 62.7276 40.0874 62.9569C40.2132 63.1549 40.2687 63.3734 40.2458 63.6055C40.2153 63.915 40.0367 64.1855 39.7699 64.3551ZM33.6622 63.3785C33.4384 63.5207 33.163 63.5628 32.9009 63.5118C31.9217 63.3003 30.8821 63.0546 29.8364 62.7765C29.6002 62.7091 29.3828 62.5572 29.246 62.342C29.0873 62.0924 29.0429 61.7943 29.1102 61.5219C29.2553 61.0066 29.8431 60.6573 30.3655 60.7966C31.3276 61.0553 32.3163 61.297 33.3105 61.5112L33.3246 61.5143C33.5921 61.5739 33.8236 61.7289 33.9713 61.9614C34.119 62.1938 34.1697 62.4637 34.1101 62.7312C34.0497 62.9993 33.8946 63.2308 33.6622 63.3785ZM27.673 61.7706C27.4139 61.9353 27.1026 61.976 26.8123 61.8825C25.8119 61.5636 24.8038 61.2133 23.8409 60.8584C23.636 60.7832 23.4609 60.6407 23.346 60.4599C23.1709 60.1844 23.1281 59.849 23.2471 59.5438C23.4422 59.033 24.0424 58.7603 24.5554 58.9419C25.476 59.2874 26.4037 59.6042 27.3133 59.8963L27.4369 59.9386C27.6645 60.0115 27.8592 60.1657 27.985 60.3637C28.1491 60.622 28.1904 60.9341 28.0964 61.2235C28.0252 61.45 27.8788 61.6398 27.673 61.7706ZM21.8711 59.6207C21.587 59.8012 21.2318 59.8336 20.9299 59.6991C19.9179 59.2667 18.9762 58.85 18.0604 58.4169C17.8727 58.3307 17.7312 58.2031 17.6272 58.0396C17.4443 57.7328 17.4219 57.3724 17.5731 57.0588C17.8009 56.5635 18.4348 56.3419 18.9307 56.5706C19.8606 57.0069 20.7936 57.4291 21.718 57.8205C21.9088 57.8926 22.0653 58.0228 22.1747 58.1949C22.3608 58.4876 22.3926 58.842 22.2633 59.1539C22.1771 59.3416 22.0424 59.5118 21.8711 59.6207ZM16.2611 56.9741C15.959 57.1661 15.5632 57.188 15.2472 57.0142C14.2986 56.5294 13.3703 56.0196 12.4928 55.5137C12.3473 55.437 12.2199 55.3125 12.1324 55.1748C11.9299 54.8563 11.9302 54.4573 12.1071 54.1273C12.375 53.6549 13.0267 53.4824 13.4991 53.7502C14.4188 54.2655 15.3275 54.7635 16.1894 55.2068C16.3403 55.2922 16.4827 55.4192 16.5757 55.5656C16.7727 55.8755 16.7897 56.2635 16.6213 56.5881C16.5405 56.7482 16.4161 56.8756 16.2611 56.9741ZM10.8751 53.9193C10.5394 54.1326 10.1272 54.1287 9.79484 53.9291C8.85867 53.3517 7.99923 52.7982 7.1484 52.2391C7.03423 52.1546 6.93181 52.0504 6.85521 51.9299C6.64183 51.5942 6.64286 51.1585 6.86608 50.8232C7.16667 50.3663 7.82396 50.2386 8.28057 50.5406C9.17137 51.1226 10.0308 51.6761 10.8629 52.1867C10.9989 52.2694 11.1022 52.373 11.1842 52.5021C11.3976 52.8379 11.4083 53.2541 11.2 53.5919C11.1106 53.7212 11.0043 53.8372 10.8751 53.9193ZM5.70369 50.4984C5.35074 50.7228 4.90866 50.7137 4.57249 50.4681C4.57249 50.4681 4.53253 50.4451 4.52706 50.4365L4.51931 50.4414C4.07671 50.1064 3.96598 49.4758 4.28698 49.03C4.61112 48.5702 5.2558 48.4626 5.71014 48.7782L5.74149 48.8066C5.86427 48.8857 5.95261 48.9866 6.02374 49.0985C6.24259 49.4429 6.22434 49.8896 5.99337 50.2297C5.91656 50.339 5.8156 50.4273 5.70369 50.4984Z" fill="black"/>
<path d="M5.6617 50.4684C5.32252 50.684 4.8734 50.6866 4.52565 50.4399C4.10877 50.1453 3.68947 49.845 3.27001 49.5387C2.8149 49.2067 2.71536 48.569 3.04591 48.1136C3.37646 47.6582 4.01589 47.5575 4.471 47.8895C4.8824 48.1888 5.29248 48.4841 5.70185 48.7726C6.16221 49.0976 6.27168 49.7339 5.94669 50.1942C5.86808 50.3082 5.77102 50.3989 5.6617 50.4684Z" fill="black"/>
<path d="M6.18618 56.097C6.12162 56.1381 6.05182 56.1728 5.97568 56.1994C5.44502 56.3856 4.86228 56.1057 4.67694 55.5745L1.7492 47.2276L10.4953 47.4362C11.059 47.4502 11.5046 47.9175 11.4901 48.4803C11.4752 49.0445 11.0082 49.4887 10.4457 49.4765L4.64934 49.3377L6.59945 54.8989C6.76065 55.356 6.577 55.8486 6.18618 56.097Z" fill="black"/>
</svg>
