<svg width="313" height="56" viewBox="0 0 313 56" fill="none" xmlns="http://www.w3.org/2000/svg">
<path d="M1 12.1548C7.89552 13.9694 23.2834 19.2681 29.6708 25.9459C32.5742 28.9702 38.889 32.4059 40.9214 21.9537C42.1103 17.5169 52.8253 13.6791 69.9552 24.1312C87.0851 34.5834 101.287 27.0346 106.247 21.9537C109.877 18.236 118.804 9.54179 129.837 13.6065C140.87 17.6712 164.968 25.1474 173.388 20.502C177.38 18.2995 182.64 16.791 188.994 12.1548C193.47 8.88853 204.962 3.95279 215.124 10.3402C222.14 15.1792 238.351 24.5668 247.061 23.4054C252.142 22.7279 258.609 20.502 261.215 10.3402C262.425 5.62223 267.893 -1.63621 280.087 7.07391L311.298 27.3975" stroke="#F47A20" stroke-width="5"/>
<path d="M1 35.6287C7.89552 37.4433 23.2834 42.742 29.6708 49.4197C32.5742 52.4441 38.889 55.8798 40.9214 45.4276C42.1103 40.9908 52.8253 37.153 69.9552 47.6051C87.0851 58.0573 101.287 50.5085 106.247 45.4276C109.877 41.7099 118.804 33.0157 129.837 37.0804C140.87 41.1451 164.968 48.6213 173.388 43.9759C177.38 41.7734 182.64 40.2649 188.994 35.6287C193.47 32.3624 204.962 27.4267 215.124 33.8141C222.14 38.6531 238.351 48.0406 247.061 46.8793C252.142 46.2018 258.609 43.9759 261.215 33.8141C262.425 29.0961 267.893 21.8377 280.087 30.5478L311.298 50.8714" stroke="#0D713C" stroke-width="5"/>
</svg>
