<svg width="53" height="8" viewBox="0 0 53 8" fill="none" xmlns="http://www.w3.org/2000/svg">
<path d="M36.7377 7.96723C36.6253 7.95358 36.4709 7.92627 36.2742 7.8853C36.0776 7.84434 35.867 7.79655 35.6423 7.74194C35.2491 7.64636 34.9822 7.55078 34.8418 7.4552C34.7014 7.35962 34.6592 7.23673 34.7154 7.08653C34.7716 6.92268 34.9682 6.77931 35.3052 6.65643C35.6423 6.53354 36.7096 6.23315 38.5072 5.75525L41.7091 4.89503L2.52782 4.87455L2.02226 4.81311C1.62904 4.77215 1.30604 4.72094 1.05326 4.6595C0.800477 4.59805 0.561738 4.51954 0.337043 4.42396C0.168521 4.34204 0.0702173 4.28059 0.0421304 4.23963C0.0140435 4.19867 0 4.12357 0 4.01434C0 3.9051 0.0140435 3.83001 0.0421304 3.78904C0.0702173 3.74808 0.140435 3.69346 0.252782 3.62519C0.477477 3.52961 0.688129 3.45451 0.884738 3.3999C1.08135 3.34528 1.37626 3.29066 1.76948 3.23605L2.3593 3.13364H41.7091L38.5072 2.25294C36.7096 1.77505 35.6423 1.47807 35.3052 1.36201C34.9682 1.24595 34.7716 1.09916 34.7154 0.921659C34.6592 0.785117 34.7014 0.669056 34.8418 0.573477C34.9822 0.477897 35.2491 0.375491 35.6423 0.266257C36.0355 0.157023 36.4147 0.0853386 36.7798 0.0512033C37.1449 0.0170674 37.6084 0 38.1701 0C38.8442 0.0136542 39.4902 0.0887523 40.1081 0.225294C40.726 0.361836 42.7202 0.887523 46.0906 1.80236C49.6296 2.73084 51.6659 3.28042 52.1995 3.4511C52.7332 3.62178 53 3.80952 53 4.01434C53 4.2055 52.7472 4.383 52.2417 4.54685C51.7361 4.7107 49.7138 5.2637 46.1749 6.20584C43.7032 6.86124 42.004 7.305 41.0771 7.53712C40.1502 7.76924 39.6025 7.89896 39.434 7.92627C39.097 7.96723 38.6476 7.99112 38.0858 7.99795C37.5241 8.00478 37.0747 7.99454 36.7377 7.96723Z" fill="#222222"/>
</svg>
