<svg width="40" height="47" viewBox="0 0 40 47" fill="none" xmlns="http://www.w3.org/2000/svg">
<path d="M10.9021 3.13387C6.18572 4.84985 1.79817 6.44251 1.16111 6.67884L0 7.10013L0.0411011 16.6253C0.0822022 26.9828 0.0513764 26.4176 0.688443 28.9145C2.38386 35.5318 7.33655 40.9366 15.0019 44.5227C16.2041 45.0878 18.1975 45.8379 19.1223 46.0742C19.7183 46.2284 19.7799 46.2284 20.5403 46.0126C23.0372 45.3242 26.2225 43.824 28.7708 42.1491C33.9906 38.7274 37.4534 34.1549 38.7892 28.9145C39.4262 26.4176 39.3954 26.9828 39.4365 16.6253C39.4776 7.54197 39.4673 7.10013 39.2926 7.03848C36.7033 6.04178 19.8827 -0.0103607 19.7183 -8.39233e-05C19.5847 -8.39233e-05 15.6184 1.40763 10.9021 3.13387ZM28.0104 6.55554L36.1279 9.50454L36.1587 15.7725C36.1895 22.8521 36.097 25.2257 35.7169 27.0753C34.5763 32.6445 30.9594 37.217 25.1847 40.4228C23.9517 41.101 22.246 41.8614 20.8896 42.334L19.7285 42.7245L18.7832 42.3854C11.4261 39.7447 6.25764 34.977 4.28479 29.0276C3.41139 26.3765 3.27781 24.6092 3.31891 15.7725L3.34974 9.51482L11.4672 6.55554C15.937 4.93205 19.6566 3.59626 19.7388 3.59626C19.821 3.59626 23.5509 4.92177 28.0104 6.55554Z" fill="#0D713C"/>
<path d="M22.4309 21.2905L16.4507 27.2707L13.7483 24.5683L11.0562 21.8762L9.84369 23.0887L8.64148 24.2909L12.5461 28.1955L16.4507 32.1001L23.6434 24.9074L30.8361 17.7147L29.6236 16.5022L28.4214 15.3L22.4309 21.2905Z" fill="#0D713C"/>
</svg>
