<svg width="43" height="32" viewBox="0 0 43 32" fill="none" xmlns="http://www.w3.org/2000/svg">
<path d="M2.23254 0.226812C1.97004 0.348684 1.64192 0.583057 1.5013 0.751806C0.976303 1.37055 0.976303 1.37055 0.957553 5.65488C0.948178 9.82671 0.957553 9.9392 1.39817 10.7923C1.67005 11.3267 2.29816 12.0017 2.87003 12.3673C3.19815 12.5829 3.52627 12.8735 3.5919 13.0142C3.79815 13.4642 3.79815 14.4298 3.60127 17.0641C3.1419 22.9797 2.99191 27.7703 3.2169 28.9796C3.43253 30.0859 4.11689 30.9577 5.07313 31.314C5.81375 31.5952 6.90124 31.5483 7.57623 31.2015C8.21372 30.8733 8.76684 30.2452 9.02934 29.5702C9.22621 29.064 9.24496 28.8484 9.25434 27.0953L9.26371 25.1734L9.92933 25.9797C12.0949 28.5765 15.2918 30.4702 18.8167 31.239C19.6417 31.4265 20.0355 31.4452 21.9667 31.4452C23.8885 31.4452 24.2917 31.4265 25.1167 31.239C26.5323 30.9296 27.6854 30.5265 29.0447 29.8515C31.2666 28.7546 32.9353 27.3671 34.6416 25.2203L34.9041 24.8922L34.8853 27.1421L34.8572 29.3921L35.1384 29.9359C35.654 30.9671 36.5447 31.5015 37.7353 31.5015C38.3634 31.5015 38.5228 31.464 39.0384 31.1921C39.6946 30.8546 40.229 30.2546 40.4446 29.5984C40.6321 29.0171 40.5571 25.4828 40.1821 17.2047C40.0977 15.2923 40.0602 13.6142 40.0977 13.4735C40.1352 13.3235 40.4727 12.8735 40.8571 12.4704C42.4977 10.7079 43.1633 8.73922 42.9665 6.23612C42.7977 4.22989 42.179 2.71116 41.0165 1.48305C40.0415 0.451809 39.0478 0.00181389 37.7634 0.00181389C36.4228 0.00181389 35.3915 0.461184 34.4259 1.47367C33.8728 2.05492 33.2447 3.04865 32.9822 3.7799C32.8322 4.17364 32.7947 4.21114 32.6635 4.09864C32.5791 4.03302 32.3072 3.78927 32.0447 3.57365C30.301 2.07367 27.6948 0.826805 25.126 0.264311C24.2823 0.0768127 23.9073 0.0486889 21.9667 0.0580635C19.548 0.0580635 18.8261 0.161188 16.9793 0.751806C15.3105 1.29555 13.0793 2.53304 11.9168 3.56427L11.4668 3.95802V2.82366C11.4668 1.54867 11.3731 1.19243 10.8762 0.667431C10.7074 0.498684 10.4074 0.273685 10.2012 0.179937C9.50746 -0.138809 8.28872 -0.00756073 7.80123 0.43306C7.6606 0.564308 7.60435 0.554934 7.22936 0.367435C6.67624 0.0768127 5.74813 0.0674381 5.21376 0.348684L4.83876 0.545559L4.29502 0.273685C3.60127 -0.073185 2.90753 -0.0919342 2.23254 0.226812ZM23.2417 1.63305C26.1292 1.81117 29.3822 3.27365 31.6135 5.40175L32.4385 6.18925L32.4478 7.23923C32.4666 9.34859 33.1134 10.9142 34.6416 12.5361C34.9884 12.9017 35.2978 13.3142 35.3353 13.4642C35.3728 13.6048 35.3728 14.3173 35.3447 15.0391C35.3072 15.7704 35.2416 17.4579 35.1759 18.7985L35.0728 21.236L34.6509 22.0797C32.2416 26.9265 27.4041 29.9171 21.9667 29.9171C19.0136 29.9171 16.4261 29.1109 13.9512 27.4328C12.7137 26.5984 10.9887 24.8453 10.1918 23.6266C9.01996 21.8359 9.07621 22.0797 8.84184 17.7954C8.63559 14.2517 8.64497 13.3142 8.85122 12.9204C8.90746 12.8173 9.16996 12.6017 9.43246 12.4329C10.0325 12.0486 10.7262 11.3173 10.9981 10.7829C11.4574 9.87358 11.4949 9.70483 11.4762 7.91423L11.4668 6.21737L12.2918 5.42988C14.6262 3.20803 17.748 1.82992 20.9355 1.60492C21.4792 1.56742 22.0511 1.54867 22.2011 1.56742C22.3604 1.5768 22.8198 1.60492 23.2417 1.63305ZM3.69502 1.83929C3.92002 2.08304 3.92002 2.08304 3.94815 4.52989C3.95752 5.87987 3.98564 7.07986 4.01377 7.20173C4.05127 7.34236 4.19189 7.47361 4.38877 7.55798C4.67939 7.67048 4.75439 7.67048 5.04501 7.55798C5.24188 7.47361 5.3825 7.34236 5.42 7.20173C5.44813 7.07986 5.47625 5.89862 5.48563 4.57676C5.51375 2.23304 5.52313 2.15804 5.72 1.96117C5.99187 1.68929 6.44187 1.68929 6.71374 1.96117C6.91061 2.15804 6.91999 2.23304 6.94811 4.57676C6.95749 5.89862 6.98561 7.07986 7.01374 7.20173C7.08874 7.51111 7.60435 7.71735 7.98873 7.58611C8.1481 7.52986 8.32622 7.40798 8.3731 7.31423C8.42935 7.21111 8.46685 6.12362 8.46685 4.73614C8.46685 2.09242 8.52309 1.74554 8.97309 1.63305C9.39496 1.52992 9.68558 1.67055 9.83558 2.03617C9.95745 2.31741 9.9762 2.91741 9.94808 5.85175C9.91995 8.94547 9.9012 9.36733 9.75121 9.69546C9.48871 10.2767 9.16059 10.6611 8.56059 11.0642C7.82935 11.5611 7.65123 11.7579 7.36998 12.3486C7.03249 13.0704 7.00436 14.1673 7.23873 17.7204C7.54811 22.6328 7.64185 24.5828 7.65123 26.7203C7.66998 28.6515 7.6606 28.7546 7.45436 29.139C6.90124 30.1702 5.55125 30.1796 4.96063 29.1577C4.57626 28.5109 4.64189 24.5265 5.14813 17.8141C5.40125 14.3923 5.42 13.7267 5.27001 13.0142C5.08251 12.1236 4.67001 11.5611 3.8544 11.0736C3.3669 10.7829 2.89816 10.2298 2.69191 9.69546C2.53254 9.27359 2.51379 8.94547 2.51379 5.65488V2.08304L2.73878 1.83929C3.03878 1.52055 3.39503 1.52055 3.69502 1.83929ZM38.9165 1.88617C39.6102 2.23304 40.2384 2.89866 40.6696 3.75177C41.1009 4.60489 41.279 5.25176 41.3634 6.283C41.5508 8.3736 41.0071 9.9392 39.5728 11.4767C38.7478 12.3673 38.5228 12.8173 38.4853 13.6423C38.4665 13.9985 38.5134 15.686 38.5978 17.3922C38.6728 19.0891 38.7853 21.8359 38.8415 23.4859C38.8884 25.1359 38.954 27.0015 38.9821 27.639C39.029 28.9515 38.954 29.2421 38.4759 29.6546C38.0446 30.0109 37.3884 30.0109 36.9572 29.6546C36.479 29.2421 36.404 28.9515 36.4509 27.639C36.479 27.0015 36.5447 25.1172 36.6009 23.4391C36.6478 21.7609 36.7509 19.1454 36.8259 17.6266C37.0228 13.6704 37.0134 13.286 36.7322 12.6673C36.6009 12.3954 36.2165 11.8611 35.8603 11.4861C34.4259 9.9392 33.8916 8.38297 34.0697 6.26424C34.2947 3.58302 35.8415 1.59555 37.7165 1.59555C38.2321 1.59555 38.4478 1.6518 38.9165 1.88617Z" fill="#0D713C"/>
<path d="M20.0917 8.43913C17.448 9.1235 15.3199 11.261 14.6542 13.9141C14.3917 14.9359 14.4011 16.5672 14.6542 17.589C15.198 19.7265 16.5948 21.4796 18.5448 22.4546C19.7167 23.0452 20.6073 23.2515 21.9667 23.2515C23.3354 23.2515 24.2166 23.0452 25.4354 22.4358C26.1947 22.0609 26.4572 21.8546 27.2635 21.0484C28.0697 20.2421 28.276 19.9796 28.651 19.2203C29.2603 18.0015 29.4666 17.1203 29.4666 15.7515C29.4666 14.3922 29.2603 13.5016 28.6697 12.3297C27.6947 10.3797 25.9416 8.98287 23.8041 8.43913C22.801 8.18601 21.0854 8.18601 20.0917 8.43913ZM23.9916 10.1735C25.6791 10.811 27.0572 12.2266 27.601 13.8953C27.7885 14.4672 27.826 14.7672 27.826 15.7515C27.826 16.7359 27.7885 17.0359 27.601 17.6172C27.0385 19.314 25.6041 20.7671 23.8416 21.3859C23.326 21.5734 23.0448 21.6109 22.0135 21.6109C20.9729 21.6109 20.6917 21.5734 20.101 21.3859C18.3854 20.8234 16.8948 19.3328 16.3323 17.6078C16.1448 17.0265 16.1073 16.7453 16.1073 15.7047C16.1073 14.3359 16.2667 13.7266 16.8667 12.7328C18.3479 10.286 21.3854 9.1985 23.9916 10.1735Z" fill="#0D713C"/>
</svg>
