<svg width="52" height="35" viewBox="0 0 52 35" fill="none" xmlns="http://www.w3.org/2000/svg">
<path d="M7.48669 0.118484C6.51281 0.473545 5.70124 1.18366 5.28531 2.04595C4.93025 2.77636 4.74765 4.53137 4.97083 4.95745C5.26502 5.49511 6.20847 5.61684 6.69541 5.17048C6.96931 4.92701 7.03018 4.78499 7.14177 4.00385C7.28379 3.00969 7.47654 2.66477 8.02435 2.39087C8.34897 2.21841 9.21126 2.20827 21.6891 2.20827H35.0089L35.2524 2.46188C35.4045 2.6039 35.506 2.82709 35.506 2.9894C35.506 3.27345 33.1322 22.8423 33.0206 23.4814L32.9597 23.8162H18.8182C6.10702 23.8162 4.66649 23.7959 4.66649 23.664C4.66649 23.3698 4.38245 22.9438 4.10854 22.822C3.49987 22.5481 2.74917 22.8017 2.53614 23.3597C2.37382 23.7756 2.00862 27.2045 2.05934 27.7422C2.13035 28.4016 2.55642 29.203 3.0738 29.6595C3.69262 30.187 4.20999 30.3087 5.73167 30.3087H7.06061L7.1722 30.9681C7.52726 33.0579 9.13011 34.5187 11.1793 34.6405C11.6662 34.6709 12.2749 34.6405 12.6097 34.5796C14.4662 34.184 16.1907 32.5913 16.7385 30.7348L16.8704 30.3087H26.173H35.4654L35.577 30.9986C35.9118 33.1898 37.6871 34.6709 39.9696 34.6709C42.2318 34.6709 44.4129 33.0478 45.1129 30.8363L45.2854 30.3087H46.7766C48.0447 30.3087 48.3693 30.2783 48.836 30.0957C49.5968 29.8116 50.3374 29.1218 50.7228 28.3508C51.0069 27.7624 51.0576 27.448 51.4938 23.9684C51.8996 20.6815 51.9503 20.0323 51.9098 18.7946L51.8692 17.3744L50.4185 12.9615C49.6272 10.537 48.8562 8.3153 48.7244 8.0414C48.1664 6.94578 47.3041 6.16465 46.0969 5.68785L45.3969 5.41395L41.471 5.37337C39.3001 5.35308 37.5349 5.33279 37.5349 5.32265C37.5349 5.31251 37.6059 4.78499 37.6769 4.14588C37.8291 2.90824 37.7784 2.16769 37.4842 1.60974C37.2204 1.08222 36.7132 0.585133 36.1755 0.301086L35.6582 0.0271835L21.7601 0.00689316C10.4996 -0.0133972 7.79102 0.00689316 7.48669 0.118484ZM44.6868 7.68633C45.7013 7.84865 46.6244 8.60949 46.8273 9.4312L46.8882 9.71525H44.8288C43.0333 9.71525 42.7086 9.74568 42.3536 9.908C41.8261 10.1515 41.4609 10.5065 41.2072 11.0036C40.9333 11.521 40.3348 16.2686 40.4667 16.8266C40.6391 17.5773 41.0855 18.0744 41.7855 18.3178C42.0289 18.399 43.2869 18.4396 45.9143 18.4396H49.7084V19.1294C49.7084 19.7279 49.4142 22.5278 49.2519 23.4814L49.191 23.8162H42.2521C36.7639 23.8162 35.3031 23.7858 35.3031 23.6843C35.3031 23.6235 35.7393 20.0323 36.2668 15.7208C36.7943 11.3992 37.2306 7.80807 37.2306 7.72691C37.2306 7.60518 37.7682 7.58489 40.6594 7.58489C42.5362 7.58489 44.3521 7.63561 44.6868 7.68633ZM48.3693 14.0774L49.0794 16.2078H45.894C44.139 16.2078 42.7086 16.1773 42.7086 16.1266C42.7086 15.8426 43.2159 12.1195 43.2666 12.0485C43.3072 11.9876 44.2202 11.9471 45.4984 11.9471H47.6592L48.3693 14.0774ZM8.60259 26.5654C8.32868 26.8596 7.98377 27.3161 7.8316 27.5798L7.5577 28.0769H6.17804C4.96069 28.0769 4.7578 28.0566 4.5549 27.8842C4.34187 27.7117 4.31143 27.6103 4.33172 27.0523C4.3723 25.9567 4.14912 26.048 6.78671 26.048H9.08953L8.60259 26.5654ZM32.6249 26.7277C32.5844 27.1132 32.5336 27.5697 32.5032 27.7422L32.4423 28.0769H24.6412H16.84L16.7284 27.7929C16.5052 27.1943 16.2212 26.6973 15.9371 26.3726L15.6328 26.048H24.1644H32.6959L32.6249 26.7277ZM36.9668 26.6871C36.632 27.032 36.277 27.4885 36.1654 27.7016C35.9726 28.0668 35.9524 28.0769 35.3741 28.0769H34.7756L34.8364 27.3871C34.877 27.0117 34.9379 26.5552 34.9683 26.3726L35.0191 26.048H36.2871H37.5552L36.9668 26.6871ZM48.8968 26.4234C48.8867 26.9712 48.5621 27.6306 48.1664 27.874C47.8722 28.0465 47.6592 28.0769 46.5331 28.0769H45.2448L45.1332 27.7929C44.9303 27.2349 44.6158 26.6973 44.3013 26.3726L43.9869 26.048H46.4418H48.8968V26.4234ZM13.7763 27.5088C14.3951 27.9349 14.7502 28.7059 14.6792 29.4769C14.5372 31.0594 13.1271 32.3782 11.5648 32.3884C11.0271 32.3884 10.8242 32.3376 10.4286 32.1043C8.6736 31.0797 9.21126 28.3711 11.3721 27.3668C12.0619 27.0422 13.2082 27.1132 13.7763 27.5088ZM41.7348 27.2654C42.171 27.4277 42.7898 28.0668 42.9724 28.5436C43.3275 29.4667 42.942 30.6942 42.0492 31.5159C40.6899 32.7637 38.8537 32.6826 38.0726 31.3435C37.0784 29.6493 38.7218 27.1639 40.8522 27.1639C41.1971 27.1639 41.5927 27.2045 41.7348 27.2654Z" fill="#0D713C"/>
<path d="M1.66371 7.76745C1.0246 8.28482 1.10576 9.28913 1.82602 9.66448C2.27238 9.89781 11.1184 9.88766 11.6155 9.66448C12.2749 9.33986 12.417 8.4167 11.8793 7.87904L11.5851 7.58485H6.72585C2.28253 7.58485 1.85645 7.60513 1.66371 7.76745Z" fill="#0D713C"/>
<path d="M3.90566 13.063C3.17525 13.3572 3.10424 14.5745 3.78392 14.9905C4.08826 15.1731 4.31144 15.1934 6.87802 15.1934C9.75907 15.1934 9.93153 15.1731 10.2663 14.747C10.4692 14.5035 10.5098 13.7731 10.3475 13.4586C10.0938 13.0021 9.81994 12.9616 6.87802 12.9717C5.35633 12.9717 4.01725 13.0123 3.90566 13.063Z" fill="#0D713C"/>
<path d="M0.568096 18.4904C0.131879 18.7238 0.0101446 18.9368 0 19.4846C0 19.9005 0.0507229 20.0223 0.294193 20.2759L0.588385 20.5701H4.88968H9.19098L9.47503 20.286C10.0025 19.7179 9.89096 18.8353 9.23156 18.4904C8.79534 18.2673 1.00431 18.2673 0.568096 18.4904Z" fill="#0D713C"/>
</svg>
