<svg width="42" height="42" viewBox="0 0 42 42" fill="none" xmlns="http://www.w3.org/2000/svg">
<path d="M22.6736 13.0617C17.8932 20.2476 13.9624 26.1643 13.942 26.2155C13.9215 26.2666 16.0916 26.3076 19.183 26.3076H24.465L24.4855 34.1487L24.5162 42L33.2479 28.9076C38.0385 21.7012 41.9693 15.7845 41.9693 15.7334C41.9693 15.6924 39.6252 15.6617 36.7487 15.6617H31.5281V7.83085C31.5281 3.52132 31.4974 -3.8147e-06 31.4565 -3.8147e-06C31.4053 -3.8147e-06 27.4643 5.88593 22.6736 13.0617ZM31.6305 19.2649L35.3156 19.2956L31.7022 24.7107L28.0989 30.1258L28.0682 26.4202L28.0478 22.7248H24.3524C22.213 22.7248 20.6775 22.6839 20.698 22.6327C20.7185 22.5815 22.3461 20.1248 24.3115 17.1665L27.8942 11.7923L27.9249 15.5184L27.9454 19.2445L31.6305 19.2649Z" fill="#0D713C"/>
<path d="M10.4411 10.4923V12.2837H14.8428H19.2444V10.4923V8.70095H14.8428H10.4411V10.4923Z" fill="#0D713C"/>
<path d="M3.48038 17.4535V19.2449H9.62223H15.7641V17.4535V15.6621H9.62223H3.48038V17.4535Z" fill="#0D713C"/>
<path d="M-3.05176e-05 24.5165V26.3079H5.27172H10.5435V24.5165V22.7251H5.27172H-3.05176e-05V24.5165Z" fill="#0D713C"/>
<path d="M3.48038 31.4772V33.2686H12.2325H20.9847V31.4772V29.6858H12.2325H3.48038V31.4772Z" fill="#0D713C"/>
</svg>
